# xmcd CD database file
#
# Track frame offsets:
#	150
#	20200
#	40405
#	50068
#	76988
#	105048
#	130613
#	163648
#	197150
#	222713
#	245203
#	274710
#	316445
#
# Disc length: 4437 seconds
#
# Revision: 1
# Processed by: cddbd v1.4b41PL1 Copyright (c) Steve Scherf et al.
# Submitted via: CDValet v3.31 - Copyright (c) 1997 Greg Leichner
#
DISCID=be11530d
DTITLE=Slappin Henry Blue - Live at P.K.'s. . .Where there's Sm
DTITLE=oke. . .
DYEAR=1900
DGENRE=
TTITLE0=Slick
TTITLE1=Baby What you Want
TTITLE2=Ain't got You
TTITLE3=Can't Judge a Book
TTITLE4=Walkin to Nawlins
TTITLE5=Get Outa my Life
TTITLE6=Walkin' Blues
TTITLE7=Hit the Road, Jack
TTITLE8=Peter Gunn
TTITLE9=Born in Chicago
TTITLE10=Thrill is Gone
TTITLE11=Wang Dang Doodle
TTITLE12=Last Call
EXTD=Featuring Tawl Paul
EXTT0=
EXTT1=
EXTT2=
EXTT3=
EXTT4=
EXTT5=
EXTT6=
EXTT7=
EXTT8=
EXTT9=
EXTT10=
EXTT11=
EXTT12=
PLAYORDER=
